# xmcd
#
# Track frame offsets:
#	150
#	22773
#	43752
#	56797
#	76585
#	90570
#	107202
#	130215
#	148512
#	167561
#	186499
#	203082
#	224277
#	251452
#
# Disc length: 3724 seconds
#
# Revision: 0
# Processed by: cddbd v1.5.2PL0 Copyright (c) Steve Scherf et al.
# Submitted via: EZCDAudioConverter 8.0.2.1
#
DISCID=bc0e8a0e
DTITLE=Nguyễn Phi Hùng - Vol 03. Anh Không Muốn Ra Đi
DYEAR=2001
DGENRE=
TTITLE0=Anh Không Muốn Ra Đi
TTITLE1=Mưa tuyệt vọng
TTITLE2=Trong một ngày yêu
TTITLE3=Không sao quên được
TTITLE4=Mùa hè vui
TTITLE5=Đêm thu
TTITLE6=Khúc hát yêu đời
TTITLE7=Tình chẳng phai mờ
TTITLE8=Anh vẫn yêu em
TTITLE9=Trọn một đêm vui
TTITLE10=Chỉ còn nước mắt
TTITLE11=Tình đơn côi
TTITLE12=Nước mắt
TTITLE13=Xót xa
EXTD=
EXTT0=
EXTT1=
EXTT2=
EXTT3=
EXTT4=
EXTT5=
EXTT6=
EXTT7=
EXTT8=
EXTT9=
EXTT10=
EXTT11=
EXTT12=
EXTT13=
PLAYORDER=
